<svg id="visual" viewBox="0 0 900 600" width="900" height="600" xmlns="http://www.w3.org/2000/svg" xmlns:xlink="http://www.w3.org/1999/xlink" version="1.1"><rect x="0" y="0" width="900" height="600" fill="#FFFFFF"></rect><g transform="translate(847.9696676524864 51.550693116504675)"><path d="M238.3 -387.2C287.5 -339.3 291.1 -236.9 310.6 -153.7C330.1 -70.5 365.5 -6.4 353.4 48.1C341.3 102.6 281.8 147.6 233.6 201.4C185.4 255.3 148.6 318.1 101.4 320.7C54.2 323.3 -3.5 265.8 -61 236C-118.6 206.3 -176.1 204.3 -210.9 176.1C-245.8 147.9 -258 93.4 -248.9 46C-239.8 -1.4 -209.5 -41.6 -199.7 -102.9C-189.9 -164.2 -200.6 -246.5 -170.8 -303.3C-140.9 -360 -70.5 -391 12.1 -409.8C94.6 -428.6 189.2 -435.1 238.3 -387.2" fill="none" stroke="#454b51" stroke-width="6"></path></g></svg>