<svg id="visual" viewBox="0 0 900 600" width="900" height="600" xmlns="http://www.w3.org/2000/svg" xmlns:xlink="http://www.w3.org/1999/xlink" version="1.1"><rect x="0" y="0" width="900" height="600" fill="#FFFFFF"></rect><g transform="translate(26.054944977989322 638.191156620115)"><path d="M271.8 -299.6C343.6 -263.8 387 -169.8 371.1 -90.5C355.3 -11.1 280.3 53.7 225.4 112.6C170.5 171.4 135.7 224.3 89.4 237.8C43.1 251.2 -14.7 225.2 -84.2 209.4C-153.7 193.6 -234.9 188.1 -309 139.7C-383.1 91.3 -450 0.1 -418.5 -55.5C-386.9 -111.1 -256.7 -130.9 -170.5 -164.2C-84.4 -197.5 -42.2 -244.3 28.9 -278.8C100.1 -313.2 200.1 -335.5 271.8 -299.6" fill="none" stroke="#c3cbd3" stroke-width="6"></path></g></svg>